<svg xmlns="http://www.w3.org/2000/svg" xml:space="preserve" style="fill-rule:evenodd;clip-rule:evenodd;stroke-linejoin:round;stroke-miterlimit:2" viewBox="0 0 193 193"><g transform="matrix(1.56567 0 0 1.72264 -51.71 237.216)"><path d="M33.13-137.259h122.631v111.457H33.13z" style="fill:none"/><clipPath id="a"><path d="M33.13-137.259h122.631v111.457H33.13z"/></clipPath><g clip-path="url(#a)"><path d="M32.943 19.299C16.179 22.908 2.868 38.829 2.569 56.168c-.32 18.546 14.397 36.315 33.487 38.744 17.97 2.288 36.756-9.794 41.808-27.568 4.825-16.971-3.278-36.678-20.013-44.959 0 0-5.52 4.815-7.662 9.729 0 0 2.338 1.037 3.878 1.926 10.217 5.897 15.543 19.242 12 30.622-4.017 12.904-19.111 21.247-32.324 17.49C20.566 78.406 11.77 63.07 15.654 49.566c1.906-6.628 6.533-12.403 12.558-15.749.029-.245.06-.489.093-.733.644-4.622 2.136-9.116 4.327-13.217.335-.617.376-.581.311-.568ZM69.971 1.593c-18.491.176-35.618 15.25-37.852 33.732-1.905 15.761 6.883 32.223 21.577 39.291l.075.035c3.261-2.576 5.577-6.227 6.91-10.156-12.185-4.704-19.669-19.788-15.489-32.652 4.131-12.712 19.006-20.852 32.07-17.226 13.126 3.644 21.972 18.746 18.372 32.175-1.804 6.729-6.4 12.62-12.497 16.1 0 0-1.43 8.478-4.969 14.62 0 0 2.24-.499 3.694-.962 16.172-5.15 27.737-22.041 26.658-39.043-1.197-18.872-17.762-35.468-37.557-35.908a54.674 54.674 0 0 0-.992-.006Z" style="fill:#fa4531" transform="matrix(1.15661 0 0 1.05122 30.165 -132.4)"/></g></g></svg>