<svg xmlns="http://www.w3.org/2000/svg" width="126" height="27" fill="none"><g fill="#FA4531" clip-path="url(#a)"><path d="m39.035 5.62-1.438-2.028c2.14-1.233 3.826-1.85 5.06-1.85.701 0 1.198.14 1.49.418.29.279.436.803.436 1.572s-.381 2.937-1.143 6.503c-.762 3.566-1.143 6.068-1.143 7.505 0 1.436.265 2.45.796 3.042-1.199.828-2.286 1.242-3.262 1.242s-1.69-.317-2.145-.95c-.453-.634-.68-1.51-.68-2.625s.317-3.397.95-6.845c.634-3.448.993-5.442 1.079-5.983ZM52.237 2.16c0 .65-.343 1.208-1.028 1.673-.684.465-1.464.698-2.337.698-.873 0-1.562-.17-2.068-.508-.505-.338-.757-.794-.757-1.369 0-.777.368-1.386 1.104-1.825a4.49 4.49 0 0 1 2.337-.66c.822 0 1.486.17 1.991.508.505.338.758.832.758 1.483ZM47.24 22.024c-1.07 0-1.845-.262-2.324-.786-.48-.524-.72-1.322-.72-2.396 0-1.073.548-3.95 1.644-8.632l-1.438-2.13c2.14-1.268 3.827-1.902 5.06-1.902.702 0 1.198.148 1.49.444.29.296.436.773.436 1.433 0 .253-.317 1.74-.95 4.462-.634 2.721-.95 4.665-.95 5.831 0 1.166.265 1.978.796 2.434-.96.828-1.974 1.242-3.044 1.242ZM54.291 22.024c-1.01 0-1.755-.262-2.234-.786-.48-.524-.72-1.217-.72-2.079 0-.862.176-2.265.527-4.208a105.49 105.49 0 0 1 1.092-5.325L51.62 7.598c1.695-.946 3.262-1.42 4.7-1.42 1.439 0 2.158.643 2.158 1.927 0 .845-.197 1.707-.59 2.586l.256.127c1.832-3.093 4.16-4.64 6.986-4.64 2.072 0 3.108 1.023 3.108 3.068 0 .88-.253 2.367-.758 4.462-.505 2.096-.757 3.676-.757 4.741 0 1.065.18 1.843.539 2.333-.908.828-1.866 1.242-2.877 1.242-1.969 0-2.953-1.048-2.953-3.144 0-.777.256-2.095.77-3.955.514-1.859.77-3.067.77-3.625 0-.76-.29-1.141-.873-1.141-.479 0-1.027.207-1.643.621-.617.414-1.212.972-1.785 1.673-.574.702-1.058 1.59-1.452 2.662a9.427 9.427 0 0 0-.59 3.271c0 1.107.18 1.906.539 2.396-.907.828-1.866 1.242-2.877 1.242ZM76.765 24.813c0-.507.116-1.394.347-2.662.23-1.268.38-2.13.45-2.586l-.258-.127c-.633.828-1.378 1.466-2.234 1.914-.856.448-1.712.672-2.569.672-1.318 0-2.422-.511-3.313-1.534-.89-1.022-1.335-2.497-1.335-4.424 0-2.552.736-4.8 2.208-6.744.72-.946 1.674-1.707 2.864-2.281a8.574 8.574 0 0 1 3.776-.863c1.327 0 2.53.288 3.608.862a8.331 8.331 0 0 1 1.952-.228c1.541 0 2.312.829 2.312 2.485 0 .27-.18 1.15-.54 2.637-1.044 4.462-1.566 8.003-1.566 10.623l1.284 2.028c-1.678 1.234-3.262 1.85-4.751 1.85-.788 0-1.357-.143-1.709-.43-.35-.288-.526-.685-.526-1.192Zm-1.644-6.592c1.113 0 2.064-.558 2.851-1.673.394-2.57.822-5.18 1.284-7.834a5.925 5.925 0 0 0-1.258-.152c-1.147 0-2.132.32-2.954.963-1.558 1.166-2.337 2.84-2.337 5.02 0 1.031.214 1.902.642 2.611.428.71 1.019 1.065 1.772 1.065ZM91.688 22.024c-2.346 0-4.157-.6-5.433-1.8-1.275-1.2-1.913-2.823-1.913-4.868 0-2.72.946-4.93 2.838-6.63 1.892-1.698 4.268-2.548 7.127-2.548 1.593 0 2.8.351 3.622 1.053.822.701 1.233 1.627 1.233 2.776 0 1.572-.775 2.877-2.325 3.917-1.55 1.04-3.942 1.568-7.178 1.584.05 1.082.3 1.931.744 2.548.445.617 1.002.926 1.67.926.668 0 1.245-.22 1.734-.66.487-.439.731-1.157.731-2.154 2.5 0 3.75.583 3.75 1.749 0 .997-.616 1.931-1.849 2.801-1.233.87-2.817 1.306-4.751 1.306Zm2.183-12.88c-.874 0-1.674.432-2.402 1.294-.727.862-1.254 1.876-1.58 3.042 1.713-.135 3.001-.52 3.866-1.153.865-.634 1.297-1.306 1.297-2.016 0-.338-.107-.617-.321-.837-.214-.22-.5-.33-.86-.33Z"/><path d="m115.291 10.691.257.127c1.832-3.093 4.075-4.64 6.729-4.64 2.072 0 3.108 1.023 3.108 3.068 0 .88-.252 2.367-.757 4.462-.505 2.096-.758 3.676-.758 4.741 0 1.065.18 1.843.539 2.333-.907.828-1.866 1.242-2.876 1.242-1.97 0-2.954-1.048-2.954-3.144 0-.777.257-2.095.77-3.955.514-1.859.771-3.067.771-3.625 0-.76-.291-1.141-.873-1.141-.48 0-1.015.207-1.606.621-.59.414-1.155.972-1.695 1.673-.539.702-.993 1.59-1.361 2.662a10.02 10.02 0 0 0-.552 3.271c0 1.107.18 1.906.539 2.396-.907.828-1.866 1.242-2.876 1.242-1.97 0-2.954-1.048-2.954-3.144 0-.777.257-2.095.77-3.955.514-1.859.771-3.067.771-3.625 0-.76-.291-1.141-.873-1.141-.48 0-1.015.207-1.606.621-.59.414-1.155.972-1.695 1.673-.539.702-.993 1.59-1.361 2.662a10.02 10.02 0 0 0-.552 3.271c0 1.107.18 1.906.539 2.396-.907.828-1.866 1.242-2.876 1.242-1.97 0-2.954-1.048-2.954-3.144 0-.676.175-1.986.526-3.93.351-1.943.715-3.718 1.092-5.323l-1.336-2.029c1.696-.946 3.262-1.42 4.701-1.42 1.438 0 2.157.643 2.157 1.927 0 .845-.197 1.707-.591 2.586l.257.127c1.832-3.093 4.075-4.64 6.729-4.64.959 0 1.717.237 2.273.71.557.474.835 1.184.835 2.13a6.19 6.19 0 0 1-.257 1.673Z"/><path fill-rule="evenodd" d="M8.713 5.093C3.921 6.11.115 10.604.03 15.497c-.092 5.234 4.116 10.248 9.573 10.934 5.138.645 10.508-2.764 11.953-7.78 1.379-4.79-.937-10.35-5.722-12.687 0 0-1.578 1.358-2.19 2.745 0 0 .668.293 1.108.544 2.921 1.664 4.444 5.43 3.431 8.641-1.148 3.642-5.463 5.996-9.24 4.936-3.768-1.057-6.283-5.385-5.172-9.196.545-1.87 1.867-3.5 3.59-4.444l.026-.207c.185-1.305.611-2.573 1.237-3.73.096-.174.108-.164.09-.16ZM19.3.096C14.013.146 9.116 4.4 8.478 9.616c-.545 4.447 1.968 9.093 6.168 11.087l.022.01c.932-.727 1.594-1.757 1.975-2.866-3.483-1.327-5.623-5.584-4.428-9.214 1.181-3.588 5.434-5.885 9.169-4.861 3.752 1.028 6.281 5.29 5.252 9.08-.516 1.898-1.83 3.56-3.573 4.543 0 0-.409 2.392-1.42 4.126 0 0 .64-.141 1.056-.272 4.623-1.453 7.93-6.22 7.62-11.018C29.979 4.905 25.243.222 19.584.098c-.095-.002-.19-.002-.284-.002Z" clip-rule="evenodd"/></g><defs><clipPath id="a"><path fill="#fff" d="M0 0h126v27H0z"/></clipPath></defs></svg>